/* XPM */
static char *rastericon[] = {
/* columns rows colors chars-per-pixel */
"22 22 174 2",
"   c black",
".  c #050605060606",
"X  c #060605060606",
"o  c #069006A00690",
"O  c #0B0C0C0C0C0C",
"+  c #0D1E0D1E0D1E",
"@  c #0DEC0E0E0DEC",
"#  c #0F860F860F86",
"$  c #031C00001086",
"%  c #033600001112",
"&  c #111212121212",
"*  c gray7",
"=  c #181818181818",
"-  c #1A5E1A801A5E",
";  c #1BFA1C1C1BFA",
":  c #1CD91CC81CC8",
">  c #1DB81D941D94",
",  c #1E401E401E40",
"<  c #1F251F251F30",
"1  c #024621980D40",
"2  c #036A326613E2",
"3  c #064A0000216C",
"4  c #066C00002221",
"5  c #09A400003334",
"6  c gray14",
"7  c #242424242526",
"8  c #2A2A2B2C2A2A",
"9  c #2B2C2B2C2A2A",
"0  c #2E942E942E94",
"q  c #313231323030",
"w  c #303031323132",
"e  c #373837383738",
"r  c #3B6E3B6E3AE6",
"t  c #3D3E3D3E3D3E",
"y  c #4332048E048E",
"u  c #540005B005B0",
"i  c #64CA06D406D4",
"p  c #048E43321A80",
"a  c #06C063C22756",
"s  c #06D464CA27C2",
"d  c #0C7E00004266",
"f  c #0CDA00004444",
"g  c #12FB001D645E",
"h  c #140701296569",
"j  c #434443444344",
"k  c #434444444344",
"l  c #444444444344",
"z  c #434443444444",
"x  c #451245124512",
"c  c #494A494A494A",
"v  c #4A4A494A494A",
"b  c #494A4A4A4A4A",
"n  c gray29",
"m  c #4DB44DB44E4E",
"M  c #4F504F504F50",
"N  c #50504F504F50",
"B  c #505050504F50",
"V  c #50504F505050",
"C  c #4F5050505050",
"Z  c #565656565556",
"A  c #555655565656",
"S  c #564D564D564D",
"D  c #5926588C5926",
"F  c #5A7C5B5C5A7C",
"G  c #5C5C5C5C5B5C",
"H  c #5C4B5C7F5C7F",
"J  c #606060606060",
"K  c #626262626262",
"L  c #636462626262",
"P  c #6498649863FE",
"I  c #686868686868",
"U  c #68686868696A",
"Y  c #6BD26BD26BD2",
"T  c gray43",
"R  c #6E6E6F706E6E",
"E  c #6E6E6E6E6F70",
"W  c #6F706F706F70",
"Q  c #757674747474",
"!  c #757675767474",
"~  c #757674747576",
"^  c #7B7C7A7A7B7C",
"/  c #7A7A7B7C7B7C",
"(  c #7B7C7B7C7B7C",
")  c #DA630ECC0ECC",
"_  c #FBFB11121112",
"`  c #091A86633502",
"'  c #0A1D95573AE6",
"]  c #0A3496AB3B6E",
"[  c #0ECCDA635624",
"{  c #0FEEEB2D5CC4",
"}  c #1038EFD95E9E",
"|  c #1046F0D75EF8",
" . c #1010F3F35F60",
".. c #1084F3DB6030",
"X. c #1096F50560A4",
"o. c #10A3F5BE60EB",
"O. c #10B6F6B1614E",
"+. c #10D7F8B46218",
"@. c #10EBF9E0628F",
"#. c #1102FB3B6319",
"$. c #1112FBF96363",
"%. c #19B400008887",
"&. c #1D2A00DC973B",
"*. c #1B7E0B809273",
"=. c #1CEA00009999",
"-. c #1E6102149872",
";. c #2332086E9665",
":. c #20200000AAA9",
">. c #23560000BBBB",
",. c #2EA20000F7BD",
"<. c #2EFC0000F9A7",
"1. c #2F360000FADC",
"2. c #2F680000FBE3",
"3. c #2F4801CAFB51",
"4. c #2FA10000FD12",
"5. c #2F8A054AFCB5",
"6. c #2FD400A6FB47",
"7. c #323E0313FDB2",
"8. c #2FF50000FED1",
"9. c #302D0000FFF0",
"0. c #32EC03C4FE5F",
"q. c #818181818181",
"w. c #818182818181",
"e. c gray53",
"r. c #878788878787",
"t. c #888788878787",
"y. c #883388338833",
"u. c #8C9D8C9D8C9D",
"i. c #8E8D8E8D8D8D",
"p. c #8D8D8D8D8E8D",
"a. c #910791079107",
"s. c #949393939393",
"d. c #939394939493",
"f. c #962F95739573",
"g. c #9A9999999A99",
"h. c #9A999A999A99",
"j. c #A09FA09FA09F",
"k. c #A6A5A6A5A6A5",
"l. c #AB67AB67AB67",
"z. c #ACABADADACAB",
"x. c #ADADADADACAB",
"c. c #B09FB17DB09F",
"v. c #B3B3B2B1B2B1",
"b. c #B2B1B3B3B2B1",
"n. c #B2B1B2B1B3B3",
"m. c #B2B1B3B3B3B3",
"M. c #B5D7B5D7B6B5",
"N. c #B9B9B9B9B8B7",
"B. c #B9B9B9B9B9B9",
"V. c #BBEDBBEDBBED",
"C. c #BFBFBEBDBFBF",
"Z. c gray75",
"A. c #C049C125C125",
"S. c #C5C5C5C5C5C5",
"D. c #CBCBCBCBCBCB",
"F. c #CCCBCBCBCBCB",
"G. c #D2D1D1D1D1D1",
"H. c #D1D1D2D1D1D1",
"J. c #D2D1D2D1D1D1",
"K. c #D1D1D1D1D2D1",
"L. c #D7D7D7D7D8D7",
"P. c #D8D7D7D7D8D7",
"I. c #D8D7D8D7D8D7",
"U. c #DDDDDDDDDDDD",
"Y. c #DEDDDDDDDEDD",
"T. c #DDDDDEDDDEDD",
"R. c #DEDDDEDDDEDD",
"E. c #E4E3E4E3E4E3",
"W. c #EAE9EAE9EAE9",
"Q. c #EAE9EAE9EBEB",
"!. c #F0EFF0EFF0EF",
"~. c #F1F1F0EFF0EF",
"^. c gray97",
"/. c #FDFDFCFBFDFD",
/* pixels */
"    . O & = , 7 9 w e t k v C Z H L I E ! ( ",
"  _ _ _ _ _ _ _ _ _ t l v C S H K U W ! ( q.",
"X u     ) _ _ _ _ _ j b V S <   @ R ~ ^ q.r.",
"O     ) _ _ _ _ y i c M A G     W Q / m     ",
"*     ) _ _ $.$.p s $.$.$.`     1 $.{     D ",
"=     ) _ _ 1         p $.$.    ' +.[     H ",
",     ) _ _ $.$.p s $.$.$.$.    ] +.[     J ",
"6     ) _ _ $.$.p s $.$.$.$.    ] +.{     P ",
"8 u     ) _ $.$.$.$.$.$.$.$.    ' #.$.`     ",
"q _ _ 9.9.9.9.9.9.$.$.$.$.$.#.@.#.$.$.$.z.n.",
"e t l 9.4.1.2.9.9.$.X...@.$.$.@.+.O. .$.v.N.",
"t z n 9.9.2.1.4.9.o...o.$.$.$.$.$.$.$.$.N.Z.",
"z c B 9.9.9.1.1.8.} | #.$.$.$.$.$.$.$.$.Z.S.",
"v N S 9.9.9.8.1.3   a $.$.$.$.$.$.$.$.$.-   ",
"C :     % :.9.9.9.3.5.5.*.    s   2 $.$.D.; ",
"x   + %.  f 9.9.4   h 7.-.    Y     l.D.J.: ",
"S o   5 %.8.1.9.4   g 7.-.    y.    c.H.I.> ",
"K U r %   d ,.9.4   g 6.-.    u.    M.I.R., ",
"F   # >.  $ <.9.4   g 1.&.    a.    V.U.E.< ",
"T 0       =.9.9.4   h 0.;.    f.    A.E.<   ",
"! / q.e.i.d.g.j.k.z.b.B.C.S.F.G.L.T.E.Q.~.^.",
"/ w.t.p.s.h.j.k.x.m.B.Z.S.D.K.P.Y.E.W.!.^./."
};
